<svg width="232.00000000000003" height="196" xmlns="http://www.w3.org/2000/svg" xmlns:xlink="http://www.w3.org/1999/xlink">
 <defs>
  <path id="B" d="m30.87,27.9a10.67,10.67 0 1 1 14,-5.84a10.66,10.66 0 0 1 -14,5.84zm4.03,-20.53l-0.03,4.55m4.35,1.77l3.35,-3.1m-1.52,7.41l4.57,-0.13m-10.67,6.28l-0.07,4.55m-4.28,-6.32l-3.3,3.17m1.47,-7.48l-4.58,-0.03m6.35,-4.3l-3.24,-3.2m11.97,11.82l3.3,3.14"/>
  <path id="C" d="m41.14,18l-1.82,-4.3l-4.35,-1.77l-4.33,1.8l-1.78,4.34l1.82,4.3l4.35,1.77l4.33,-1.8l1.78,-4.34z"/>
  <path id="D" d="m31,27.9a10.67,10.67 0 1 1 14,-5.84a10.66,10.66 0 0 1 -14,5.84zm4,-20.54l-0.03,4.55m4.35,1.77l3.35,-3.1m-1.53,7.42l4.57,-0.13m-10.67,6.28l-0.07,4.55m-4.3,-6.32l-3.28,3.17m1.46,-7.48l-4.57,-0.03m6.35,-4.3l-3.24,-3.2m11.96,11.82l3.3,3.14"/>
  <path id="E" d="m41,19.37l-1.82,-4.3l-4.35,-1.77l-4.32,1.8l-1.78,4.34l1.82,4.3l4.35,1.77l4.33,-1.8l1.77,-4.34z"/>
  <path id="F" d="m34.88,8.74l-0.04,4.55m4.35,1.77l3.36,-3.1m-1.55,7.41l4.58,-0.13m-10.68,6.28l-0.07,4.55m-4.28,-6.32l-3.3,3.17m1.47,-7.48l-4.57,-0.03m6.35,-4.3l-3.25,-3.2m11.99,11.79l3.3,3.14"/>
  <path id="G" d="m31,27.9a10.67,10.67 0 1 1 13.95,-5.84a10.64,10.64 0 0 1 -13.95,5.85l0,-0.01zm4,-20.54l-0.03,4.55m4.35,1.77l3.35,-3.1m-1.53,7.42l4.57,-0.13m-10.67,6.28l-0.07,4.55m-4.3,-6.32l-3.28,3.17m1.46,-7.48l-4.57,-0.03m6.35,-4.3l-3.24,-3.2m11.96,11.82l3.3,3.14"/>
  <path id="H" d="m8,13a15.91,15.91 0 0 1 9,3.33m0,0a16.53,16.53 0 0 0 7.36,3.2m28.76,-3.2a16.15,16.15 0 0 0 -8.55,-3.33m19.24,6.53a11.42,11.42 0 0 1 -1.67,0.12a15.94,15.94 0 0 1 -9,-3.32m-45.14,6.67a15.91,15.91 0 0 0 9,-3.33m2.7,-1.67a15.33,15.33 0 0 1 4.71,-1.54m28.72,3.2a16.06,16.06 0 0 1 -8.56,3.34"/>
  <path id="I" d="m64,16.47a12,12 0 0 0 -1.82,-0.15a14.27,14.27 0 0 0 -6.4,1.68m-49.7,-1.53a17.73,17.73 0 0 1 1.92,-0.13a15.94,15.94 0 0 1 9,3.32m0,0.01a16.09,16.09 0 0 0 8.54,3.33m27.58,-3.34a16.61,16.61 0 0 0 -7.44,-3.22m16.46,6.56a15.94,15.94 0 0 1 -9,-3.32"/>
  <path id="J" d="m6.1,19.5a17.52,17.52 0 0 0 1.91,0.16a14.36,14.36 0 0 0 6.39,-1.66m2.6,-1.67a16.23,16.23 0 0 1 8.3,-3.3l0.32,0m24.84,4.97a15,15 0 0 1 -4.77,1.54m16.45,-6.54a15.91,15.91 0 0 0 -9,3.33"/>
  <path id="K" d="m8,23c-1.1,0 -2,-2.8 -2,-4.48l0,-1c0,-2 0.9,-4.48 2,-4.48m54,9.96c1.1,0 2,-2.8 2,-4.48l0,-1c0,-2 -0.9,-4.47 -2,-4.47"/>
  <path id="L" d="m41.23,18l-1.82,-4.3l-4.35,-1.77l-4.33,1.8l-1.77,4.34l1.82,4.3l4.35,1.77l4.33,-1.8l1.77,-4.34z"/>
  <path id="M" d="m31.05,27.9a10.67,10.67 0 1 1 14,-5.84a10.64,10.64 0 0 1 -14,5.84zm4.05,-20.53l-0.03,4.55m4.35,1.77l3.36,-3.1m-1.55,7.41l4.57,-0.13m-10.67,6.28l-0.07,4.55m-4.28,-6.32l-3.3,3.17m1.47,-7.48l-4.58,-0.03m6.35,-4.3l-3.24,-3.2m11.97,11.82l3.3,3.14"/>
 </defs>
 <g>
  <title>Layer 1</title>
  <g id="svg_226">
   <svg width="62" height="26" viewBox="-2 -2 62 26" x="199.76202" y="257.28698" id="svg_1">
    <g transform="matrix(.99145 0 0 1.0058 -5.66 -7.157)" class="D E" stroke="#4a4a4a" fill="none" id="svg_2">
     <g class="C F" stroke-width="0.5" stroke-miterlimit="10" id="svg_9">
      <rect x="56.46" y="15.31" width="7.5" height="5.08" rx="1.48" id="svg_13"/>
      <rect x="5.96" y="15.59" width="7.5" height="5.08" rx="1.48" id="svg_12"/>
     </g>
     <path d="m28.78,18.07l1.82,4.3l4.35,1.77l4.32,-1.8l1.78,-4.34l-1.82,-4.3l-4.35,-1.77l-4.33,1.8l-1.77,4.34z" class="C" stroke-width="0.5" id="svg_7"/>
     <use xlink:href="#B" class="C" stroke-width="0.5" id="svg_6"/>
     <path d="m47.9,18.03l0.9,2.1l2.2,0.87l2.17,-0.88l0.9,-2.1l-0.92,-2.1l-2.17,-0.86l-2.16,0.88l-0.92,2.09z" class="C" stroke-width="0.5" id="svg_5"/>
     <path d="m49,22.8a5.12,5.12 0 0 1 -3,-6.75a5.42,5.42 0 0 1 7,-2.84a5.12,5.12 0 0 1 2.93,6.79a5.42,5.42 0 0 1 -6.93,2.81l0,-0.01zm1.98,-9.97l-0.02,2.2m2.17,0.86l1.68,-1.5m-0.77,3.6l2.3,-0.06m-5.34,3.07l-0.03,2.2m-2.14,-3.07l-1.64,1.53m0.73,-3.63l-2.3,-0.01m3.18,-2.1l-1.62,-1.56m5.98,5.74l1.65,1.52m-39.03,-3.6l0.9,2.1l2.18,0.86l2.16,-0.88l0.9,-2.1l-0.9,-2.1l-2.18,-0.86l-2.16,0.88l-0.9,2.1z" class="C" stroke-width="0.5" id="svg_4"/>
     <path d="m16.83,22.8a5.12,5.12 0 0 1 -2.94,-6.75a5.42,5.42 0 0 1 7,-2.84a5.12,5.12 0 0 1 2.92,6.79a5.42,5.42 0 0 1 -6.98,2.81l0,-0.01zm2.02,-9.97l-0.02,2.2m2.18,0.86l1.68,-1.5m-0.77,3.6l2.28,-0.06m-5.33,3.07l-0.04,2.2m-2.14,-3.07l-1.64,1.53m0.73,-3.63l-2.28,-0.01m3.17,-2.1l-1.62,-1.56m5.98,5.74l1.66,1.52" class="C" stroke-width="0.5" id="svg_3"/>
    </g>
   </svg>
  </g>
  <g id="svg_18">
   <svg width="21.04" height="21.07" viewBox="-2 -2 21.04 21.07" x="468.64295" y="-4.90844" id="svg_14">
    <path d="m14.36,0l-11.64,0l-2.72,2.94l0,11.13l2.72,3l11.64,0l2.68,-3l0,-10.87l-2.68,-3.2zm-0.22,11.9l0,-6.6l1.9,-1.18l0,9l-1.9,-1.22zm-13.14,1.22l0,-9.22l1.9,1.24l0,6.76l-1.9,1.22zm2.4,-7.66l1.7,1.1l0,3.9l-1.7,1.1l0,-6.1zm3.1,6.5l4.1,0l1.16,1.66l-6.4,0l1.14,-1.66zm4.17,-0.5l-4.27,0l-0.78,-0.84a0.25,0.25 0 0 0 0,-0.18l0,-4l0.72,-0.82l0.06,0a0.25,0.25 0 0 0 0.14,0l3.92,0a0.25,0.25 0 0 0 0.14,0l0.05,0l0.74,0.88a0.24,0.24 0 0 0 0,0.07l0,3.87a0.24,0.24 0 0 0 0,0.11l-0.72,0.91zm-0.08,-6.37l-4.1,0l-1.16,-1.69l6.4,0l-1.14,1.69zm1.22,1.1l-0.75,-0.9l1.2,-1.77l1.3,1.55l-1.75,1.12zm0.28,-3.3l-7.09,0l-1.3,-1.89l9.66,0l-1.27,1.89zm-6.09,2.38l-0.75,0.8l-1.75,-1.15l1.3,-1.42l1.2,1.77zm-0.75,5.67l0.75,0.82l-1.2,1.77l-1.32,-1.43l1.77,-1.16zm-0.25,3.2l7.08,0l1.3,1.9l-9.68,0l1.3,-1.9zm6.05,-2.38l0.74,-0.82l1.77,1.15l-1.3,1.43l-1.21,-1.76zm0.9,-1.3l0,-3.84l1.7,-1l0,6l-1.7,-1.16zm4.05,-6.93l-2,1.27l-1.47,-1.7l1.4,-2l2.07,2.43zm-12.86,-2.49l1.4,2l-1.47,1.58l-2,-1.34l2.07,-2.24zm-2.12,12.66l2,-1.33l1.45,1.58l-1.4,2l-2.05,-2.25zm12.93,2.3l-1.4,-2l1.43,-1.58l2,1.33l-2.03,2.25z" class="G" fill="#95989a" id="svg_17"/>
   </svg>
  </g>
  <g id="svg_33">
   <svg width="62" height="26" viewBox="-2 -2 62 26" y="297.28719" id="svg_19" x="125.76217">
    <g transform="matrix(.99145 0 0 1.0058 -5.7 -7.157)" id="svg_20">
     <g class="D E" stroke="#4a4a4a" fill="none" id="svg_26">
      <g class="C" stroke-width="0.5" id="svg_30">
       <path d="m28.78,18.07l1.82,4.3l4.35,1.77l4.33,-1.8l1.77,-4.34l-1.82,-4.3l-4.35,-1.77l-4.33,1.8l-1.77,4.34z" id="svg_32"/>
       <use xlink:href="#B" id="svg_31"/>
      </g>
      <g class="C F" stroke-width="0.5" stroke-miterlimit="10" id="svg_27">
       <rect x="45.71" y="15.32" width="18.29" height="5.35" rx="1.48" id="svg_29"/>
       <rect x="6" y="15.32" width="18.29" height="5.35" rx="1.48" id="svg_28"/>
      </g>
     </g>
     <path d="m21.85,20.17a2.15,2.15 0 0 1 -2.14,-2.07l0,-0.1a2.18,2.18 0 0 1 2.14,-2.11a2.12,2.12 0 0 1 2.14,2l0,0.17a2.15,2.15 0 0 1 -2.14,2.11z" class="C H I" stroke-width="0.5" fill="#1d53cc" stroke="#1d53cc" id="svg_25"/>
     <path d="m17,20.22a2.15,2.15 0 0 1 -2.14,-2.07l0,-0.15a2.18,2.18 0 0 1 2.14,-2.07a2.12,2.12 0 0 1 2.14,2l0,0.17a2.15,2.15 0 0 1 -2.14,2.12z" class="C D E" stroke-width="0.5" stroke="#4a4a4a" fill="none" id="svg_24"/>
     <path d="m12.17,20.22a2.15,2.15 0 0 1 -2.17,-2.08l0,-0.14a2.18,2.18 0 0 1 2.14,-2.11a2.12,2.12 0 0 1 2.14,2l0,0.17a2.15,2.15 0 0 1 -2.11,2.16zm45.66,-0.03a2.15,2.15 0 0 1 -2.14,-2.07l0,-0.12a2.18,2.18 0 0 1 2.14,-2.11a2.12,2.12 0 0 1 2.14,2l0,0.17a2.15,2.15 0 0 1 -2.14,2.13z" class="C H I" stroke-width="0.5" fill="#1d53cc" stroke="#1d53cc" id="svg_23"/>
     <path d="m53,20.24a2.15,2.15 0 0 1 -2.14,-2.07l0,-0.1a2.18,2.18 0 0 1 2.14,-2.07a2.12,2.12 0 0 1 2.14,2l0,0.17a2.15,2.15 0 0 1 -2.14,2.07z" class="C D E" stroke-width="0.5" stroke="#4a4a4a" fill="none" id="svg_22"/>
     <path d="m48.14,20.24a2.15,2.15 0 0 1 -2.14,-2.07l0,-0.1a2.18,2.18 0 0 1 2.14,-2.07a2.12,2.12 0 0 1 2.14,2l0,0.17a2.15,2.15 0 0 1 -2.14,2.07z" class="C H I" stroke-width="0.5" fill="#1d53cc" stroke="#1d53cc" id="svg_21"/>
    </g>
   </svg>
  </g>
  <g id="svg_36">
   <svg width="22.51" height="22.49" viewBox="-2 -2 22.51 22.49" x="379.38235" y="147.92588" id="svg_34">
    <path d="m17.77,4.133a5.88,5.88 0 0 0 -4.4,-3.75a19.55,19.55 0 0 0 -4.12,-0.38a18.39,18.39 0 0 0 -4.32,0.43a5.89,5.89 0 0 0 -4.3,3.91a15.14,15.14 0 0 0 -0.62,4.9a17.25,17.25 0 0 0 0.49,4.52a5.63,5.63 0 0 0 4.58,4.33a19.27,19.27 0 0 0 4.17,0.39a18.92,18.92 0 0 0 4.18,-0.39a5.64,5.64 0 0 0 4.45,-4a15.32,15.32 0 0 0 0.61,-4.87a13,13 0 0 0 -0.72,-5.09zm-0.84,9.7l0,0.08l-1.05,-1.68l1.6,-2a12.15,12.15 0 0 1 -0.52,3.53l-0.03,0.07zm-7.68,3.67l-3.94,-2.93l4,-1.1l4,1.1l-3.94,2.93l-0.12,0zm-7.8,-4a14.23,14.23 0 0 1 -0.43,-3.27l1.6,2l-1,1.7c-0.07,-0.14 -0.12,-0.3 -0.15,-0.4l-0.02,-0.03zm0.17,-9l1,1.57l-1.6,2.1a12,12 0 0 1 0.53,-3.49c0.02,-0.06 0.05,-0.06 0.07,-0.16l0,-0.02zm1.25,7.27l-1.86,-2.34l0,-0.4l1.86,-2.48l1.6,2.64l-1.6,2.58zm6.38,-10.75l0.22,0l3.75,2.8l-4,1.1l-4,-1.1l3.75,-2.8l0.28,0zm-4.27,12l2.95,0.33l-3,0.82l0.05,-1.15zm8.57,1.14l-3,-0.82l2.95,-0.33l0.05,1.15zm-4.3,-1.18l-4.25,-0.48l0.07,-3.25l0,-0.13l-0.07,-3.25l4.26,-0.47l4.26,0.47l-0.07,3.37l0.07,3.25l-4.27,0.49zm4.27,-7.58l-2.95,-0.33l3,-0.82l-0.05,1.15zm-8.57,-1.16l3,0.82l-2.95,0.33l-0.05,-1.15zm11.92,0.33a10.18,10.18 0 0 1 0.6,3.61l-1.6,-2.08l1,-1.55l0,0.02zm-1.23,2l1.85,2.5l0,0.4l-1.9,2.34l-1.57,-2.58l1.62,-2.66zm1,-2.57l-2.68,4.33l0.14,-6.7a5,5 0 0 1 2.51,2.36l0.03,0.01zm-3,-2.5l0,2l-3.23,-2.4a16.13,16.13 0 0 1 2.83,0.33c0.07,-0.03 0.2,0.02 0.36,0.06l0.04,0.01zm-8.47,-0.08a15.15,15.15 0 0 1 3,-0.37l-3.23,2.4l0,-1.95l0.23,-0.08zm-0.77,0.2l0.13,6.66l-2.66,-4.33a4.92,4.92 0 0 1 2.53,-2.33zm-2.6,12.88l2.72,-4.46l-0.14,6.84a4.65,4.65 0 0 1 -2.58,-2.38zm3.06,2.53l0,-2.1l3.42,2.54a16.48,16.48 0 0 1 -3.09,-0.35c-0.06,-0.02 -0.18,-0.06 -0.33,-0.1l0,0.01zm8.33,0.1a16,16 0 0 1 -3.08,0.35l3.42,-2.54l0,2.1l-0.34,0.09zm0.87,-0.25l-0.14,-6.83l2.7,4.45a4.65,4.65 0 0 1 -2.54,2.38l-0.02,0z" class="G" fill="#95989a" id="svg_35"/>
   </svg>
  </g>
  <g id="svg_229">
   <svg viewBox="3.7 5 63 26" width="62" height="26" x="188.97596" y="323.48398" id="svg_37">
    <g class="C D E" stroke-width="0.5" stroke="#4a4a4a" fill="none" id="svg_38">
     <g class="F" stroke-miterlimit="10" id="svg_41">
      <rect x="6.1" y="11.43" width="18.29" height="5.35" rx="1.48" transform="rotate(10 15.228 14.101)" id="svg_45"/>
      <rect x="6.03" y="19.38" width="18.29" height="5.35" rx="1.48" transform="rotate(170 15.17 22.055)" id="svg_44"/>
      <rect x="45.66" y="11.43" width="18.29" height="5.35" rx="1.48" transform="rotate(170 54.806 14.11)" id="svg_43"/>
      <rect x="45.73" y="19.38" width="18.29" height="5.35" rx="1.48" transform="rotate(10 54.851 22.037)" id="svg_42"/>
     </g>
     <use xlink:href="#C" id="svg_40"/>
     <use xlink:href="#D" id="svg_39"/>
    </g>
   </svg>
  </g>
  <g id="svg_48">
   <svg width="19" height="24.57" viewBox="-2 -2 19 24.57" x="340.27026" y="128.71177" id="svg_46">
    <path d="m12,0l-9,0l-3,3.08l0,14.92l2.32,2.57l10.36,0l2.32,-2.57l0,-14.9l-3,-3.1zm-1.93,3.5l-5.12,0l-1.29,-2.62l7.67,0l-1.26,2.62zm-5.13,0.44l5.12,0l1.6,1.77l0,9.52l-1.18,1.42l-5.95,0l-1.18,-1.42l0,-9.53l1.59,-1.76zm-0.4,13.15l5.9,0l1.6,2.6l-9,0l1.5,-2.6zm6.3,-0.2l1,-1.26l2.23,2l-1.62,1.9l-1.61,-2.64zm1.3,-1.67l0,-9.52l2,-1.88l0,13.25l-2,-1.85zm1.9,-11.9l-2.12,2l-1.45,-1.6l1.3,-2.7l2.27,2.3zm-10.8,-2.3l1.32,2.68l-1.44,1.6l-2.19,-1.9l2.31,-2.38zm-0.32,4.7l0,9.6l-2,2l0,-13.39l2,1.79zm-1.92,12.08l2.1,-2.13l1,1.18l-1.56,2.7l-1.54,-1.75z" class="G" fill="#95989a" id="svg_47"/>
   </svg>
  </g>
  <g id="svg_231">
   <svg viewBox="-2 -2 74 40" width="74" height="40" y="257.28698" id="svg_49" x="125.76202">
    <g class="C D E F" stroke-width="0.5" stroke="#4a4a4a" fill="none" stroke-miterlimit="10" id="svg_66">
     <rect x="45.59" y="16.69" width="18.29" height="5.35" rx="1.48" id="svg_68"/>
     <rect x="5.88" y="16.69" width="18.29" height="5.35" rx="1.48" id="svg_67"/>
    </g>
    <g class="C" stroke-width="0.5" id="svg_58">
     <path d="m30.83,29.28a10.67,10.67 0 1 1 14,-5.84a10.66,10.66 0 0 1 -14,5.84z" fill="#17108f" class="D" stroke="#4a4a4a" id="svg_62"/>
     <g stroke="#aaa" id="svg_59">
      <use xlink:href="#E" class="E" fill="none" id="svg_61"/>
      <use xlink:href="#F" fill="#0024d6" id="svg_60"/>
     </g>
    </g>
    <g class="C D E F" stroke-width="0.5" stroke="#4a4a4a" fill="none" stroke-miterlimit="10" id="svg_55">
     <rect x="45.59" y="16.69" width="18.29" height="5.35" rx="1.48" id="svg_57"/>
     <rect x="5.88" y="16.69" width="18.29" height="5.35" rx="1.48" id="svg_56"/>
    </g>
    <g class="C" stroke-width="0.5" id="svg_50">
     <path d="m30.83,29.28a10.67,10.67 0 1 1 14,-5.84a10.66,10.66 0 0 1 -14,5.84z" fill="#17108f" class="D" stroke="#4a4a4a" id="svg_54"/>
     <g stroke="#aaa" id="svg_51">
      <use xlink:href="#E" class="E" fill="none" id="svg_53"/>
      <use xlink:href="#F" fill="#0024d6" id="svg_52"/>
     </g>
    </g>
   </svg>
  </g>
  <g id="svg_8">
   <svg y="216.948" width="62" height="26" viewBox="-2 -2 62 26" x="274.101" id="svg_69">
    <g transform="matrix(.99145 0 0 1.0009 -5.7 -7.006)" class="D E" stroke="#4a4a4a" fill="none" id="svg_70">
     <g class="C F" stroke-width="0.5" stroke-miterlimit="10" id="svg_72">
      <rect x="45.71" y="15.38" width="18.29" height="5.35" rx="1.48" id="svg_74"/>
      <rect x="6" y="15.38" width="18.29" height="5.35" rx="1.48" id="svg_73"/>
     </g>
     <path d="m38.32,14.7l-3.35,-1.34l-3.32,1.37l-1.37,3.3l1.4,3.28l3.35,1.34l3.32,-1.37l1.37,-3.3l-1.4,-3.28zm5.38,5.3a2,2 0 0 1 -2,-1.92l0,-0.08a2,2 0 0 1 2,-2a2,2 0 0 1 2,1.89l0,0.16a2,2 0 0 1 -2,1.95zm-17.4,-0.1a2,2 0 0 1 -2,-1.92l0,-0.1a2,2 0 0 1 2,-2a2,2 0 0 1 2,1.89l0,0.2a2,2 0 0 1 -2,1.89l0,0.04zm8.63,-8.63a2,2 0 0 1 -2,-1.92l0,-0.1a2,2 0 0 1 2,-2a2,2 0 0 1 2,1.89l0,0.16a2,2 0 0 1 -2,1.96l0,0.01zm0,17.45a2,2 0 0 1 -2,-1.92l0,-0.1a2,2 0 0 1 2,-2a2,2 0 0 1 2,1.89l0,0.16a2,2 0 0 1 -2.02,1.94l0.02,0.03zm6.5,-4.73a2,2 0 0 1 -0.75,-2.66l0,-0.08a2.06,2.06 0 0 1 2.73,-0.68a2,2 0 0 1 0.77,2.63l-0.08,0.14a2,2 0 0 1 -2.67,0.65zm-15,-8.75a2,2 0 0 1 -0.75,-2.66l0,-0.08a2.06,2.06 0 0 1 2.73,-0.68a2,2 0 0 1 0.77,2.63l-0.08,0.14a2,2 0 0 1 -2.64,0.68l-0.03,-0.03zm11.87,-3.14a2,2 0 0 1 -0.75,-2.66l0,-0.08a2.06,2.06 0 0 1 2.73,-0.68a2,2 0 0 1 0.77,2.63l-0.08,0.14a2,2 0 0 1 -2.64,0.68l-0.03,-0.03zm-8.9,15.08a2,2 0 0 1 -0.75,-2.66l0,-0.08a2.06,2.06 0 0 1 2.73,-0.68a2,2 0 0 1 0.77,2.63l-0.08,0.14a2,2 0 0 1 -2.67,0.65zm8,-0.66a2,2 0 0 1 0.72,-2.67l0.08,0a2.06,2.06 0 0 1 2.71,0.78a2,2 0 0 1 -0.69,2.66l-0.14,0.08a2,2 0 0 1 -2.63,-0.85l-0.05,0zm-8.4,-15.04a2,2 0 0 1 0.72,-2.67l0.08,0a2.06,2.06 0 0 1 2.71,0.78a2,2 0 0 1 -0.69,2.66l-0.14,0.08a2,2 0 0 1 -2.68,-0.85zm11.87,3.22a2,2 0 0 1 0.71,-2.7l0.08,0a2.06,2.06 0 0 1 2.71,0.78a2,2 0 0 1 -0.69,2.66l-0.14,0.08a2,2 0 0 1 -2.67,-0.82zm-15.43,8.5a2,2 0 0 1 0.72,-2.67l0.08,0a2.06,2.06 0 0 1 2.71,0.78a2,2 0 0 1 -0.69,2.66l-0.14,0.08a2,2 0 0 1 -2.68,-0.85z" class="C" stroke-width="0.5" id="svg_71"/>
    </g>
   </svg>
  </g>
  <g id="svg_77">
   <svg width="21.22" height="21.01" viewBox="-2 -2 21.22 21.01" x="314.22328" y="164.53598" id="svg_75">
    <path d="m12.67,0.01a5.47,5.47 0 0 0 -4.06,1.46a5.47,5.47 0 0 0 -4.059,-1.46c-3.751,0 -9.691,8.83 4.059,16.99c13.75,-8.17 7.8,-17 4.06,-17l0,0.01zm3.16,3.83l-2.84,2.26l0,-5.1a4.46,4.46 0 0 1 2.84,2.82l0,0.02zm-3.1,2.8zm-2.15,-2.3a3.23,3.23 0 0 0 -1.1,0.19l3.06,-3.1l0,4.42a2.39,2.39 0 0 0 -1.96,-1.47l0,-0.04zm-2,7.66c-3.93,-2.42 -3.82,-4.66 -3.6,-5.52a2.09,2.09 0 0 1 1.64,-1.62a2.21,2.21 0 0 1 1.6,0.54l0.37,0.42l0.38,-0.4a2.2,2.2 0 0 1 1.6,-0.54a2.09,2.09 0 0 1 1.65,1.66c0.2,0.86 0.3,3.1 -3.62,5.52l-0.02,-0.06zm-2,-7.66a2.36,2.36 0 0 0 -1.81,1.52l0,-4.36l3.08,3.1a3.22,3.22 0 0 0 -1.22,-0.25l-0.05,-0.01zm-2.2,2.8a4.53,4.53 0 0 0 1.13,2.92l-3.28,-0.32l2.15,-2.6zm3.85,5.2l-1.3,1.8l-0.4,-3a12.86,12.86 0 0 0 1.69,1.21l0.01,-0.01zm2.6,-1.3l-0.4,3.1l-1.3,-1.82a12.58,12.58 0 0 0 1.67,-1.27l0.03,-0.01zm2,-3.9l2.23,2.6l-3.37,0.38a4.51,4.51 0 0 0 1.09,-2.98l0.05,0zm-0.6,-6.08l-3.4,3.44l0,-1.8l0.5,-0.54a4.46,4.46 0 0 1 2.9,-1.1zm-3.9,1.64l0,1.73l-3.32,-3.39a4.45,4.45 0 0 1 2.84,1.09l0.48,0.57zm-4.1,-1.64l0,5.1l-2.84,-2.3a4.4,4.4 0 0 1 2.84,-2.79l0,-0.01zm-3,3.35l3,2.36l-2.32,2.6a6.81,6.81 0 0 1 -0.68,-4.95l0,-0.01zm1.2,5.84l3.5,0.4l0.48,3.66a16.41,16.41 0 0 1 -3.99,-4.06l0.01,0zm4.62,4.53l1.55,-2.16l1.64,2.13c-0.5,0.35 -1,0.7 -1.6,1.06c-0.6,-0.35 -1.1,-0.7 -1.58,-1.03l-0.01,0zm3.82,-0.5l0.47,-3.62l3.45,-0.4a16.34,16.34 0 0 1 -3.92,4.01l0,0.01zm4.46,-4.94l-2.23,-2.6l2.9,-2.34a6.8,6.8 0 0 1 -0.67,4.92l0,0.02z" class="G" fill="#95989a" id="svg_76"/>
   </svg>
  </g>
  <g id="svg_10">
   <path d="m340.64764,40.21564a0.44,0.44 0 0 0 -0.51,0c-0.26,0.18 -6.24,4.5 -6.24,11.1s6.24,11.1 6.3,11.13a0.44,0.44 0 0 0 0.4,0c0.06,0 6.3,-4.5 6.3,-11.13s-6,-10.92 -6.25,-11.1zm-4,17.1l3.27,-1l-1.6,3.2a16.36,16.36 0 0 1 -1.67,-2.19l0,-0.01zm1,-6.93l-2.15,-2.31l2.86,0.52a5.56,5.56 0 0 0 -0.69,1.78l-0.02,0.01zm-2.88,0.93a10.1,10.1 0 0 1 0.43,-2.9l2.37,2.54l0,0.6l-2.4,2.56a10.09,10.09 0 0 1 -0.39,-2.82l-0.01,0.02zm3.53,2.6l-2.8,0.52l2.14,-2.3a5.48,5.48 0 0 0 0.69,1.76l-0.03,0.02zm1.62,1.9l-3.23,1l2,-2.4a8,8 0 0 0 1.23,1.41l0,-0.01zm0.47,-0.18a6.06,6.06 0 0 1 -2.37,-4.35a6.08,6.08 0 0 1 2.39,-4.34a6.07,6.07 0 0 1 2.39,4.34a6.05,6.05 0 0 1 -2.4,4.35l-0.01,0zm2,-7.06l2.83,-0.52l-2.1,2.27a5.57,5.57 0 0 0 -0.7,-1.76l-0.03,0.01zm0.72,3.6l2.1,2.26l-2.77,-0.5a5.47,5.47 0 0 0 0.69,-1.76l-0.02,0zm0.06,-1.27l2.36,-2.53a9.91,9.91 0 0 1 0,5.78l-2.38,-2.55l0,-0.3c0,-0.1 0.07,-0.3 0.05,-0.42l-0.03,0.02zm-0.54,-2.82l1.85,-2.26a12.71,12.71 0 0 1 0.83,1.74l-2.68,0.52zm-0.58,0a7.86,7.86 0 0 0 -1.33,-1.41l3.3,-1l-1.97,2.41zm-3.4,0l-2,-2.46l3.33,1a7.86,7.86 0 0 0 -1.29,1.49l-0.04,-0.03zm-2.35,-2.19l1.78,2.2l-2.6,-0.48a12.71,12.71 0 0 1 0.82,-1.71l0,-0.01zm1.78,8.52l-1.82,2.25a12.62,12.62 0 0 1 -0.81,-1.76l2.63,-0.49zm4,0l1.94,2.42l-3.2,-1a7.85,7.85 0 0 0 1.32,-1.37l-0.06,-0.05zm2.38,2.22l-1.86,-2.27l2.67,0.5a12.64,12.64 0 0 1 -0.76,1.83l-0.05,-0.06zm-0.38,-11.44l-3.25,1l1.57,-3.16a16.44,16.44 0 0 1 1.67,2.16l0.01,0zm-3.68,-4.06a17.14,17.14 0 0 1 1.69,1.56l-1.7,3.42l-1.7,-3.4a17.24,17.24 0 0 1 1.72,-1.59l-0.01,0.01zm-2,1.94l1.52,3.13l-3.2,-1a16.47,16.47 0 0 1 1.65,-2.13l0.03,0zm2,18.4a17.15,17.15 0 0 1 -1.76,-1.65l1.74,-3.47l1.75,3.5a17.16,17.16 0 0 1 -1.73,1.62zm2.05,-1.95l-1.62,-3.24l3.3,1a16.38,16.38 0 0 1 -1.69,2.24l0.01,0z" class="G" fill="#95989a" id="svg_88"/>
  </g>
  <g id="svg_11">
   <svg width="18" height="24.82" viewBox="-2 -2 18 24.82" x="379.66016" y="8.4071" id="svg_78">
    <path d="m7,0c-0.07,0 -6.92,0.12 -7,10.42c0.2,10.28 6.93,10.4 7,10.4s6.8,-0.12 7,-10.4c-0.08,-10.3 -6.93,-10.42 -7,-10.42zm6.1,9l-3.3,-1.92l0,-0.08l0.64,-4.7c1.2,1.1 2.4,3.1 2.67,6.7l-0.01,0zm-12.25,1.4l0,-0.9l3.05,-1.78a7.73,7.73 0 0 0 -0.42,2.69a7.66,7.66 0 0 0 0.53,2.85l-3.11,-1.86a14.62,14.62 0 0 1 -0.04,-1l-0.01,0zm6.15,4.8s-3,-0.06 -3.08,-4.8a6.71,6.71 0 0 1 0.62,-3l0.1,-0.2a3,3 0 0 1 2.11,-1.49l0.3,0a3,3 0 0 1 2.11,1.46l0,0.06l0.08,0.15l0,0.05l0.08,0a6.74,6.74 0 0 1 0.61,3c0.07,4.7 -2.81,4.77 -2.93,4.77zm0.52,-9.93l2.4,-2.67l-0.53,3.88a3.45,3.45 0 0 0 -1.88,-1.21l0.01,0zm-2.9,1.25l-0.52,-3.92l2.4,2.67a3.47,3.47 0 0 0 -1.87,1.25l-0.01,0zm0,7.77a3.44,3.44 0 0 0 1.95,1.27l-2.5,2.78l0.55,-4.05zm4.76,0l0.54,4l-2.5,-2.73a3.42,3.42 0 0 0 1.94,-1.23l0.02,-0.04zm1.13,-3.88a7.75,7.75 0 0 0 -0.43,-2.66l3,1.76l0,1.9l-3.12,1.8a7.69,7.69 0 0 0 0.55,-2.79l0,-0.01zm-0.58,-8.47l-2.93,3.26l-0.06,0l-2.9,-3.23a5.39,5.39 0 0 1 2.96,-1.12a5.38,5.38 0 0 1 2.93,1.09zm-6.3,0.4l0.64,4.73l-3.37,1.91c0.27,-3.52 1.44,-5.52 2.7,-6.65l0.03,0.01zm-2.7,9.64l3.3,1.9l-0.6,4.58c-1.22,-1.12 -2.36,-3.05 -2.7,-6.5l0,0.02zm3.2,6.92l2.85,-3.18l2.87,3.2a5.26,5.26 0 0 1 -2.85,1.06a5.28,5.28 0 0 1 -2.86,-1.07l-0.01,-0.01zm6.23,-0.4l-0.62,-4.6l3.33,-1.93c-0.32,3.46 -1.44,5.46 -2.7,6.54l-0.01,-0.01z" class="G" fill="#95989a" id="svg_79"/>
   </svg>
  </g>
  <g id="svg_82">
   <svg width="16" height="24.77" viewBox="-2 -2 16 24.77" x="306.41029" y="80" id="svg_80">
    <path d="m6.07,0l-0.07,0c-0.06,0 -6,0.56 -6,8c0,7.26 5.5,12.3 5.73,12.52l0.27,0.25l0.27,-0.25c0.23,-0.22 5.73,-5.26 5.73,-12.52c0.04,-7.43 -5.87,-8 -5.93,-8zm0,14.7a9.13,9.13 0 0 1 -2.67,-6c0,-3.34 2.43,-3.68 2.67,-3.7s2.67,0.37 2.67,3.7a9.15,9.15 0 0 1 -2.7,6.01l0.03,-0.01zm3.08,-6l0,-1l2,1l-2.13,1.24a7.48,7.48 0 0 0 0.1,-1.23l0.03,-0.01zm-2.66,-4l2.47,-2.4l-0.16,4.5a3.44,3.44 0 0 0 -2.34,-2.12l0.03,0.02zm-3.2,2.2l-0.16,-4.54l2.46,2.37a3.44,3.44 0 0 0 -2.33,2.14l0.03,0.03zm-0.34,1.9a7.52,7.52 0 0 0 0.12,1.16l-2.15,-1.16l2,-1l0.03,1zm0.13,1.66l0.4,5.92a16.37,16.37 0 0 1 -2.51,-7l2.11,1.08zm0.85,6.62l-0.36,-5.4a10.37,10.37 0 0 0 2.21,3.37l-1.8,2.08l-0.05,-0.05zm4.6,-5.25l-0.36,5.3l-1.8,-2.08a10.36,10.36 0 0 0 2.14,-3.26l0.02,0.04zm0.5,-1.4l2.17,-1.15a16.39,16.39 0 0 1 -2.58,7.2l0.41,-6.05zm2.23,-2.36l0,0.3l-2,-1l0.17,-4.8a7.54,7.54 0 0 1 1.81,5.47l0.02,0.03zm-5.22,-7.24a5.71,5.71 0 0 1 2.62,1.11l-2.66,2.61l-2.67,-2.6a5.7,5.7 0 0 1 2.71,-1.12zm-3.38,1.72l0.17,4.8l-2,1l0,-0.35a7.58,7.58 0 0 1 1.83,-5.46l0,0.01zm3.34,17.11a19.53,19.53 0 0 1 -1.86,-2.23l1.86,-2.13l1.86,2.14a19.52,19.52 0 0 1 -1.82,2.22l-0.04,0z" class="G" fill="#95989a" id="svg_81"/>
   </svg>
  </g>
  <g id="svg_85">
   <svg width="21" height="21" viewBox="-2 -2 21 21" x="321.52494" y="33.11064" id="svg_83">
    <path d="m0,0l0,17l17,0l0,-17l-17,0zm3.2,14.07l0,-0.94l1.42,-2.13l0.58,0.93a0.25,0.25 0 0 0 0.09,0.08l1.08,0.6l-2.23,1.45l-0.94,0.01zm0.2,0.5l-2.1,1.38l1.4,-2.1l0,0.7l0.7,0.02zm-0.7,-10.77l-1.6,-2.44l2.33,1.54l-0.73,0l0,0.9zm0.5,-0.4l1,0l2.1,1.4l-0.95,0.6l0,0.05c0,0.05 0,0 0,0l-0.65,1.17l-1.4,-2.1l-0.1,-1.12zm8.1,2.44l0.72,1.17l0,3.3l-0.77,1.38l-1.17,0.72l-3,0l-1.46,-0.82l-0.72,-1.17l0,-3.22l0.8,-1.4l1.17,-0.72l3.1,0l1.33,0.76zm-1.23,-1.28l-3.25,0l-1.74,-1.16l6.74,0l-1.75,1.16zm-5.71,2.64l0,3.26l-1.16,1.74l0,-6.74l1.16,1.74zm2.45,5.7l3.26,0l1.74,1.16l-6.74,0l1.74,-1.16zm3.8,-0.24l1,-0.6a0.24,0.24 0 0 0 0.08,-0.08l0.65,-1.15l1.56,2.36l0,0.87l-1.2,0l-2.09,-1.4zm1.9,-2.4l0,-3.24l1.34,-2l0,7.3l-1.34,-2.06zm-0.24,-3.8l-0.6,-1l-0.05,0c-0.05,0 0,0 0,0l-1.05,-0.6l2.17,-1.44l1.14,0l0,0.68l-1.61,2.36zm1.2,-3.57l2.08,-1.38l-1.2,1.8l0,-0.41l-0.88,-0.01zm-0.9,0l-8.24,0l-2.88,-1.89l14,0l-2.88,1.89zm-11.57,-0.76l1.7,2.57l0,8.26l-1.7,2.58l0,-13.41zm3.3,12.44l8.25,0l2.2,1.47l-12.61,0l2.16,-1.47zm9.16,0l0.9,0l0,-0.62l1.38,2.1l-0.07,0l-2.21,-1.48zm0.9,-1.52l0,-8.8l1.66,-2.5l0,13.83l-1.66,-2.53z" class="G" fill="#95989a" id="svg_84"/>
   </svg>
  </g>
  <g id="svg_89">
   <svg width="21.04" height="21.07" viewBox="-2 -2 21.04 21.07" x="410.33812" y="-56.48679" id="svg_86">
    <path d="m14.36,0l-11.64,0l-2.72,2.94l0,11.13l2.72,3l11.64,0l2.68,-3l0,-10.84l-2.68,-3.23zm-0.22,12.03l0,-6.8l1.86,-1.11l0,9.05l-1.86,-1.14zm-13.14,-8.13l1.77,1.15l0.06,0l0.08,0.15l0,6.8l-1.91,1.16l0,-9.26zm7.56,8.66l2.58,1.1l-5.07,0l2.49,-1.1zm-3.38,1l0,-1l2.3,0l-2.3,1zm4.58,-1l2.37,0l0,1l-2.37,-1zm-1.22,-0.52l-3.4,-0.06l0,-6.75l7,0l0,6.68l-3.6,0.13zm-4,-3.5l-1.16,2.44l0,-4.75l1.16,2.31zm-1.04,-3.31l1.1,0l0,2.25l-1.1,-2.25zm1.1,4.34l0,2.35l-1.13,0l1.13,-2.35zm3.9,-4.87l-2.63,-1.36l5.36,0l-2.73,1.36zm3.63,-1.2l0,1.3l-2.63,0l2.63,-1.3zm-4.65,1.27l-2.34,0l0,-1.2l2.34,1.2zm5.16,2.57l0,-2.04l0.93,0l-0.93,2.04zm0,2.34l1,2.26l-1,0l0,-2.26zm0,-1.17l1,-2.24l0,4.63l-1,-2.39zm0,-3.7l0,-0.86l0.72,0.86l-0.72,0zm-0.42,-1.9l-7.28,0a0.24,0.24 0 0 0 0,-0.14l-1.2,-1.77l9.7,0l-1.22,1.91zm-7.6,1.9l-1,0l1,-1l0,1zm0.06,7.68l0,0.9l-0.84,-0.92l0.84,0.02zm0.4,1.7l7.2,0l1.17,1.9l-9.7,0l1.33,-1.9zm7.58,-1.7l0.63,0l-0.63,0.7l0,-0.7zm3.4,-8.93l-2.05,1.22l-1.35,-1.6l1.32,-2.1l2.08,2.48zm-12.9,-2.5l1.37,2l-1.44,1.63l-2,-1.32l2.07,-2.31zm-2.1,12.7l2.1,-1.25l0.08,0l1.35,1.47l-1.42,2l-2.11,-2.22zm12.93,2.26l-1.3,-2.12l1.25,-1.38l2.08,1.25l-2.03,2.25z" class="G" fill="#95989a" id="svg_87"/>
   </svg>
  </g>
  <g id="svg_15">
   <svg width="74" height="40" x="122.101" y="366.948" id="svg_90">
    <g fill="#ffdf00" class="C D F" stroke-width="0.5" stroke="#4a4a4a" stroke-miterlimit="10" id="svg_104">
     <rect x="45.71" y="15.32" width="18.29" height="5.35" rx="1.48" id="svg_106"/>
     <rect x="6" y="15.32" width="18.29" height="5.35" rx="1.48" id="svg_105"/>
    </g>
    <g class="C D E" stroke-width="0.5" stroke="#4a4a4a" fill="none" id="svg_97">
     <use xlink:href="#C" id="svg_103"/>
     <use xlink:href="#G" id="svg_101"/>
    </g>
    <g fill="#ffdf00" class="C F" stroke-width="0.5" stroke-miterlimit="10" id="svg_94">
     <rect x="45.71" y="15.32" width="18.29" height="5.35" rx="1.48" class="D" stroke="#4a4a4a" id="svg_96"/>
     <rect x="6" y="15.32" width="18.29" height="5.35" rx="1.48" class="D" stroke="#4a4a4a" id="svg_95"/>
    </g>
    <g class="C D E" stroke-width="0.5" stroke="#4a4a4a" fill="none" id="svg_91">
     <use xlink:href="#C" id="svg_93"/>
     <use xlink:href="#G" id="svg_92"/>
    </g>
   </svg>
  </g>
  <g id="svg_16">
   <svg width="74" height="40" x="122.43998" y="341.948" id="svg_107">
    <g fill="#f9f3d1" class="C D F" stroke-width="0.5" stroke="#4a4a4a" stroke-miterlimit="10" id="svg_188">
     <rect x="45.71" y="15.32" width="18.29" height="5.35" rx="1.48" id="svg_190"/>
     <rect x="6" y="15.32" width="18.29" height="5.35" rx="1.48" id="svg_189"/>
    </g>
    <g class="C D E" stroke-width="0.5" stroke="#4a4a4a" fill="none" id="svg_136">
     <use xlink:href="#C" id="svg_187"/>
     <use xlink:href="#G" id="svg_186"/>
    </g>
    <g fill="#f9f3d1" class="C F" stroke-width="0.5" stroke-miterlimit="10" id="svg_120">
     <rect x="45.71" y="15.32" width="18.29" height="5.35" rx="1.48" class="D" stroke="#4a4a4a" id="svg_122"/>
     <rect x="6" y="15.32" width="18.29" height="5.35" rx="1.48" class="D" stroke="#4a4a4a" id="svg_121"/>
    </g>
    <g class="C D E" stroke-width="0.5" stroke="#4a4a4a" fill="none" id="svg_108">
     <use xlink:href="#C" id="svg_110"/>
     <use xlink:href="#G" id="svg_109"/>
    </g>
   </svg>
  </g>
  <g id="svg_236">
   <svg y="216.948" viewBox="-2 -2 74 40" width="74" height="40" x="200.101" id="svg_191">
    <g fill="#e2a79f" class="C D F" stroke-width="0.5" stroke="#4a4a4a" stroke-miterlimit="10" id="svg_201">
     <rect x="45.71" y="15.32" width="18.29" height="5.35" rx="1.48" id="svg_203"/>
     <rect x="6" y="15.32" width="18.29" height="5.35" rx="1.48" id="svg_202"/>
    </g>
    <g class="C D E" stroke-width="0.5" stroke="#4a4a4a" fill="none" id="svg_198">
     <use xlink:href="#C" id="svg_200"/>
     <use xlink:href="#G" id="svg_199"/>
    </g>
    <g fill="#e2a79f" class="C F" stroke-width="0.5" stroke-miterlimit="10" id="svg_195">
     <rect x="45.71" y="15.32" width="18.29" height="5.35" rx="1.48" class="D" stroke="#4a4a4a" id="svg_197"/>
     <rect x="6" y="15.32" width="18.29" height="5.35" rx="1.48" class="D" stroke="#4a4a4a" id="svg_196"/>
    </g>
    <g class="C D E" stroke-width="0.5" stroke="#4a4a4a" fill="none" id="svg_192">
     <use xlink:href="#C" id="svg_194"/>
     <use xlink:href="#G" id="svg_193"/>
    </g>
   </svg>
  </g>
  <path d="m314.50179,78.98271a8.57,8.57 0 1 0 8.57,8.57a8.57,8.57 0 0 0 -8.57,-8.57zm7.57,8.57a7.54,7.54 0 0 1 -0.21,1.72l-1.58,-1.59l1.63,-1.63a7.57,7.57 0 0 1 0.15,1.48l0.01,0.02zm-14.77,2.3l1.82,-1.8l1.33,1.33l0,1.9l-2.52,0a7.52,7.52 0 0 1 -0.62,-1.41l-0.01,-0.02zm-0.37,-2.31a7.57,7.57 0 0 1 0.19,-1.52l1.64,1.66l-1.64,1.6a7.54,7.54 0 0 1 -0.19,-1.74zm14.84,-2l-1.84,1.84l-1.34,-1.34l0,-1.92l2.64,0a7.5,7.5 0 0 1 0.54,1.37l0,0.05zm-10.84,0.72l2.1,-2.1l3,0l2.1,2.04l0,3l-2.1,2.1l-3,0l-2.1,-2.09l0,-2.95zm-0.5,2.46l-1,-1l1,-1l0,2zm8.15,-2l1,1l-1,1l0,-2zm-0.47,-1.22l-1.4,-1.4l1.4,0l0,1.4zm-1.9,-1.9l-1.34,-1.32l1.94,-1.94a7.53,7.53 0 0 1 1.31,0.55l0,2.73l-1.91,-0.02zm-0.7,0l-2,0l1,-1l1,1zm-2.67,0l-1.91,0l0,-2.72a7.52,7.52 0 0 1 1.31,-0.55l1.89,1.95l-1.29,1.32zm-0.5,0.5l-1.4,1.4l0,-1.38l1.4,-0.02zm-1.9,1.9l-1.31,1.34l-1.9,-1.88a7.51,7.51 0 0 1 0.53,-1.34l2.7,0l-0.02,1.88zm0.5,3.88l1.4,1.4l-1.41,0l0.01,-1.4zm1.87,1.9l1.3,1.3l-1.67,1.7a7.52,7.52 0 0 1 -1.51,-0.6l0,-2.4l1.88,0zm0.7,0l2,0l-1,1l-1,-1zm2.67,0l1.9,0l0,2.43a7.52,7.52 0 0 1 -1.51,0.61l-1.7,-1.7l1.31,-1.34zm0.5,-0.5l1.4,-1.4l0,1.4l-1.4,0zm1.9,-1.9l1.35,-1.32l1.77,1.73a7.52,7.52 0 0 1 -0.59,1.48l-2.52,0l-0.01,-1.89zm2.36,-5.76l-2.36,0l0,-2.44a7.61,7.61 0 0 1 2.35,2.43l0.01,0.01zm-4.7,-3.45l-1.71,1.76l-1.76,-1.75a7.31,7.31 0 0 1 3.49,0l-0.02,-0.01zm-5.8,1l0,2.45l-2.41,0a7.61,7.61 0 0 1 2.4,-2.48l0.01,0.03zm-2.21,10.61l2.2,0l0,2.15a7.62,7.62 0 0 1 -2.22,-2.15l0.02,0zm4.8,3.2l1.5,-1.5l1.5,1.5a7.56,7.56 0 0 1 -3,0zm5.58,-1.07l0,-2.13l2.18,0a7.62,7.62 0 0 1 -2.17,2.1l-0.01,0.03z" class="G" fill="#95989a" id="svg_137"/>
  <g id="svg_212">
   <svg width="62" height="26" viewBox="-2 -2 62 26" x="188.97611" y="297.48419" id="svg_204">
    <g transform="matrix(.99145 0 0 1.0058 -5.7 -7.197)" class="D E" stroke="#4a4a4a" fill="none" id="svg_205">
     <g class="C F" stroke-width="0.5" stroke-miterlimit="10" id="svg_209">
      <rect x="45.71" y="15.36" width="18.29" height="5.35" rx="1.48" id="svg_211"/>
      <rect x="6" y="15.36" width="18.29" height="5.35" rx="1.48" id="svg_210"/>
     </g>
     <path d="m34.97,11.96l-4.33,1.8l-1.78,4.33l1.82,4.32l4.35,1.77l4.33,-1.82l1.78,-4.33l-1.82,-4.3l-4.35,-1.77z" class="C" stroke-width="0.5" id="svg_208"/>
     <path d="m31,27.95a10.67,10.67 0 1 1 14,-5.84a10.66,10.66 0 0 1 -14,5.84zm4,-20.55l-0.03,4.56m4.35,1.77l3.35,-3.1m-1.53,7.4l4.57,-0.13m-10.67,6.3l-0.07,4.55m-4.3,-6.32l-3.28,3.16m1.46,-7.48l-4.57,-0.03m6.35,-4.3l-3.24,-3.2m11.96,11.8l3.3,3.15" class="C" stroke-width="0.5" id="svg_207"/>
     <path d="m21.85,20.2a2.15,2.15 0 0 1 -2.14,-2.07l0,-0.13a2.18,2.18 0 0 1 2.14,-2.11a2.12,2.12 0 0 1 2.15,2.11l0,0.17a2.15,2.15 0 0 1 -2.15,2.03zm-4.85,0.05a2.15,2.15 0 0 1 -2.14,-2.07l0,-0.1a2.18,2.18 0 0 1 2.14,-2.08a2.12,2.12 0 0 1 2.14,2l0,0.17a2.15,2.15 0 0 1 -2.14,2.08zm-4.83,0a2.15,2.15 0 0 1 -2.17,-2.07l0,-0.1a2.18,2.18 0 0 1 2.17,-2.08a2.12,2.12 0 0 1 2.14,2l0,0.17a2.15,2.15 0 0 1 -2.14,2.08zm45.66,-0.02a2.15,2.15 0 0 1 -2.14,-2.07l0,-0.1a2.18,2.18 0 0 1 2.14,-2.11a2.12,2.12 0 0 1 2.17,2.05l0,0.17a2.15,2.15 0 0 1 -2.17,2.06zm-4.83,0.05a2.15,2.15 0 0 1 -2.14,-2.07l0,-0.1a2.18,2.18 0 0 1 2.14,-2.11a2.12,2.12 0 0 1 2.14,2l0,0.17a2.15,2.15 0 0 1 -2.14,2.11zm-4.86,0a2.15,2.15 0 0 1 -2.14,-2.08l0,-0.1a2.18,2.18 0 0 1 2.14,-2.1a2.12,2.12 0 0 1 2.14,2l0,0.17a2.15,2.15 0 0 1 -2.14,2.11z" class="C" stroke-width="0.5" id="svg_206"/>
    </g>
   </svg>
  </g>
  <g id="svg_220">
   <svg width="62" height="26" viewBox="-2 -2 62 26" x="347.66016" y="-49.5929" id="svg_213">
    <g transform="matrix(.99145 0 0 1.0058 -5.7 -7.157)" class="D E" stroke="#4a4a4a" fill="none" id="svg_214">
     <g class="C F" stroke-width="0.5" stroke-miterlimit="10" id="svg_217">
      <rect x="45.71" y="15.32" width="18.29" height="5.35" rx="1.48" id="svg_219"/>
      <rect x="6" y="15.32" width="18.29" height="5.35" rx="1.48" id="svg_218"/>
     </g>
     <path d="m30.64,13.73l-1.78,4.34l1.82,4.3l4.35,1.77l4.33,-1.8l1.78,-4.34l-1.82,-4.3l-4.35,-1.77l-4.33,1.8z" class="C" stroke-width="0.5" id="svg_216"/>
     <use xlink:href="#D" class="C" stroke-width="0.5" id="svg_215"/>
    </g>
   </svg>
  </g>
  <g id="svg_321" fill-opacity="0">
   <svg viewBox="-2 -2 74 40" width="74" height="40" id="svg_221" x="76.09011" y="73.22456" fill="#000000">
    <g class="D E" stroke="#4a4a4a" fill="none" id="svg_222">
     <g class="C" stroke-width="0.5" id="svg_238">
      <use xlink:href="#H" id="svg_243" fill="#000000"/>
      <use xlink:href="#I" id="svg_242" fill="#000000"/>
      <use xlink:href="#J" id="svg_241" fill="#000000"/>
      <use xlink:href="#K" class="F" stroke-miterlimit="10" id="svg_240" fill="#000000"/>
     </g>
     <g class="C" stroke-width="0.5" id="svg_234">
      <use xlink:href="#L" id="svg_237" fill="#000000"/>
      <use xlink:href="#M" id="svg_235" fill="#000000"/>
     </g>
     <g class="C" stroke-width="0.5" id="svg_227">
      <use xlink:href="#H" id="svg_233" fill="#000000"/>
      <use xlink:href="#I" id="svg_232" fill="#000000"/>
      <use xlink:href="#J" id="svg_230" fill="#000000"/>
      <use xlink:href="#K" class="F" stroke-miterlimit="10" id="svg_228" fill="#000000"/>
     </g>
     <g class="C" stroke-width="0.5" id="svg_223">
      <use xlink:href="#L" id="svg_225" fill="#000000"/>
      <use xlink:href="#M" id="svg_224" fill="#000000"/>
     </g>
    </g>
   </svg>
  </g>
  <g id="svg_239">
   <svg width="62" height="26" viewBox="-2 -2 62 26" y="322.948" id="svg_244" x="126.43998">
    <g transform="matrix(.99145 0 0 1.0058 -5.7 -7.157)" class="D" stroke="#4a4a4a" id="svg_245">
     <g fill="#fff" class="C F" stroke-width="0.5" stroke-miterlimit="10" id="svg_256">
      <rect x="45.8" y="15.32" width="18.18" height="5.35" rx="1.48" id="svg_258"/>
      <rect x="6.02" y="15.32" width="18.26" height="5.35" rx="1.48" id="svg_257"/>
     </g>
     <g class="E" fill="none" id="svg_246">
      <g class="C" stroke-width="0.5" id="svg_253">
       <path d="m30.64,13.73l-1.78,4.34l1.83,4.3l4.35,1.77l4.33,-1.8l1.77,-4.34l-1.82,-4.3l-4.35,-1.77l-4.33,1.8z" id="svg_255"/>
       <path d="m31,27.9a10.67,10.67 0 1 1 14,-5.84a10.66,10.66 0 0 1 -14,5.84zm4,-20.54l-0.03,4.55m4.35,1.77l3.35,-3.1m-1.53,7.42l4.57,-0.13m-10.67,6.28l-0.07,4.55m-4.28,-6.32l-3.3,3.17m1.47,-7.48l-4.58,-0.03m6.35,-4.3l-3.24,-3.2m11.97,11.82l3.3,3.14" id="svg_254"/>
      </g>
      <g class="C" stroke-width="0.5" id="svg_247">
       <path d="m53,17.9a5.82,5.82 0 0 1 -3.64,1.67a5.82,5.82 0 0 1 -3.64,-1.67a5.82,5.82 0 0 1 3.64,-1.67a5.82,5.82 0 0 1 3.64,1.66l0,0.01z" class="J" stroke-linejoin="round" id="svg_252"/>
       <ellipse cx="54.84" cy="17.93" rx="1.86" ry="1.67" id="svg_251"/>
       <path d="m64,17.9a5.82,5.82 0 0 1 -3.64,1.67a5.82,5.82 0 0 1 -3.64,-1.67a5.82,5.82 0 0 1 3.64,-1.67a5.82,5.82 0 0 1 3.64,1.66l0,0.01zm-50.72,0.1a5.86,5.86 0 0 1 -3.65,1.67a5.86,5.86 0 0 1 -3.63,-1.67a5.86,5.86 0 0 1 3.65,-1.67a5.86,5.86 0 0 1 3.63,1.67z" class="J" stroke-linejoin="round" id="svg_250"/>
       <ellipse cx="15.15" cy="18.04" rx="1.87" ry="1.67" id="svg_249"/>
       <path d="m24.32,18a5.86,5.86 0 0 1 -3.65,1.67a5.86,5.86 0 0 1 -3.67,-1.67a5.86,5.86 0 0 1 3.65,-1.67a5.86,5.86 0 0 1 3.67,1.67z" class="J" stroke-linejoin="round" id="svg_248"/>
      </g>
     </g>
    </g>
   </svg>
  </g>
 </g>
</svg>